<?xml version="1.0" encoding="UTF-8"?>
<svg height="16px" viewBox="0 0 16 16" width="16px" xmlns="http://www.w3.org/2000/svg">
    <g fill="none" stroke="#000000">
        <path d="m 7.90625 2.5 h -0.261719 l -0.023437 0.003906 h -0.230469 l -0.03125 0.003906 h -0.160156 l -0.039063 0.003907 h -0.121094 l -0.042968 0.003906 h -0.09375 l -0.050782 0.003906 h -0.105468 l -0.117188 0.007813 h -0.0625 l -0.066406 0.003906 l -0.140625 0.007812 l -0.074219 0.003907 l -0.078125 0.003906 l -0.082031 0.003906 l -0.234375 0.011719 l -0.226563 0.015625 l -0.222656 0.023437 l -0.21875 0.027344 l -0.214844 0.027344 l -0.207031 0.035156 l -0.203125 0.039063 l -0.195312 0.039062 l -0.195313 0.042969 l -0.1875 0.046875 l -0.183593 0.050781 l -0.175782 0.050782 l -0.175781 0.054687 l -0.171875 0.058594 l -0.164062 0.0625 l -0.3125 0.132812 l -0.148438 0.070313 l -0.140625 0.070312 l -0.140625 0.074219 l -0.132812 0.074219 l -0.128907 0.078125 l -0.242187 0.15625 l -0.117188 0.082031 l -0.109375 0.082031 l -0.105469 0.085938 l -0.101562 0.085937 l -0.09375 0.085938 l -0.175781 0.175781 l -0.078125 0.089844 l -0.074219 0.089843 l -0.070313 0.089844 l -0.066406 0.085938 l -0.117187 0.179687 l -0.050781 0.089844 l -0.046876 0.089844 l -0.039062 0.089843 l -0.039062 0.085938 l -0.03125 0.089844 l -0.046876 0.171875 l -0.015624 0.085937 l -0.011719 0.085938 l -0.007813 0.082031 l -0.003906 0.082031 v 0.835938 l 0.003906 0.144531 l 0.015625 0.140625 l 0.019531 0.128906 l 0.03125 0.128906 l 0.039063 0.121094 l 0.046875 0.113282 l 0.050781 0.109374 l 0.0625 0.105469 l 0.066407 0.101563 l 0.070312 0.09375 l 0.082031 0.089844 l 0.082031 0.082031 l 0.089844 0.082031 l 0.097656 0.078125 l 0.097657 0.074219 l 0.105469 0.074218 l 0.21875 0.132813 l 0.117187 0.066406 l 0.242187 0.117188 l 0.125 0.054687 l 0.125 0.050782 l 0.128907 0.046874 l 0.125 0.046876 l 0.128906 0.042968 l 0.398437 0.117188 l 0.128907 0.035156 l 0.132812 0.035156 l 0.132813 0.03125 l 0.257812 0.054688 l 0.128906 0.023437 l 0.242188 0.039063 l 0.121094 0.015625 l 0.117187 0.015625 l 0.21875 0.023437 l 0.105469 0.007813 l 0.101562 0.007812 l 0.097657 0.003906 l 0.089843 0.003907 h 0.167969 l 0.074219 -0.007813 l 0.082031 -0.007812 l 0.078125 -0.011719 l 0.074219 -0.015625 l 0.074219 -0.019531 l 0.070312 -0.023438 l 0.066406 -0.027343 l 0.066407 -0.03125 l 0.0625 -0.03125 l 0.0625 -0.035157 l 0.0625 -0.039062 l 0.054687 -0.039063 l 0.058594 -0.042968 l 0.054688 -0.046876 l 0.050781 -0.046874 l 0.054687 -0.046876 l 0.101563 -0.101562 l 0.046875 -0.050781 l 0.050781 -0.054688 l 0.234375 -0.273437 l 0.046875 -0.058594 l 0.09375 -0.109375 l 0.046875 -0.050781 l 0.046875 -0.054688 l 0.046875 -0.050781 l 0.101562 -0.101563 l 0.101563 -0.09375 l 0.109375 -0.085937 l 0.054688 -0.039063 l 0.058593 -0.035156 l 0.0625 -0.035156 l 0.058594 -0.03125 l 0.132813 -0.054688 l 0.066406 -0.019531 l 0.070312 -0.019531 l 0.074219 -0.015625 l 0.074219 -0.011719 l 0.078125 -0.003906 l 0.082031 -0.003906 l 0.082031 0.003906 l 0.078125 0.003906 l 0.074219 0.011719 l 0.074219 0.015625 l 0.070312 0.019531 l 0.066406 0.019531 l 0.132813 0.054688 l 0.058594 0.03125 l 0.0625 0.035156 l 0.058593 0.035156 l 0.054688 0.039063 l 0.109375 0.085937 l 0.101563 0.09375 l 0.050781 0.050782 l 0.046875 0.050781 l 0.050781 0.050781 l 0.046875 0.054688 l 0.046875 0.050781 l 0.09375 0.109375 l 0.046875 0.058594 l 0.234375 0.273437 l 0.050781 0.054688 l 0.046875 0.050781 l 0.101563 0.101562 l 0.050781 0.046876 l 0.109375 0.09375 l 0.058594 0.042968 l 0.054687 0.039063 l 0.0625 0.039062 l 0.0625 0.035157 l 0.0625 0.03125 l 0.066407 0.03125 l 0.066406 0.027343 l 0.070312 0.023438 l 0.074219 0.019531 l 0.074219 0.015625 l 0.078125 0.011719 l 0.082031 0.007812 l 0.074219 0.007813 h 0.167969 l 0.089843 -0.003907 l 0.097657 -0.003906 l 0.101562 -0.007812 l 0.105469 -0.007813 l 0.21875 -0.023437 l 0.117187 -0.015625 l 0.121094 -0.015625 l 0.242188 -0.039063 l 0.128906 -0.023437 l 0.257812 -0.054688 l 0.132813 -0.03125 l 0.132812 -0.035156 l 0.128907 -0.035156 l 0.265624 -0.078125 l 0.128907 -0.039063 l 0.132812 -0.042968 l 0.125 -0.046876 l 0.128907 -0.046874 l 0.125 -0.050782 l 0.125 -0.054687 l 0.242187 -0.117188 l 0.117187 -0.066406 l 0.21875 -0.132813 l 0.105469 -0.074218 l 0.097657 -0.074219 l 0.097656 -0.078125 l 0.171875 -0.164062 l 0.078125 -0.089844 l 0.074218 -0.09375 l 0.066407 -0.101563 l 0.0625 -0.105469 l 0.050781 -0.109374 l 0.046875 -0.113282 l 0.039063 -0.121094 l 0.03125 -0.128906 l 0.019531 -0.128906 l 0.015625 -0.140625 l 0.003906 -0.144531 v -0.835938 l -0.007812 -0.164062 l -0.03125 -0.171875 l -0.019532 -0.085938 l -0.027344 -0.085937 l -0.03125 -0.089844 l -0.039062 -0.085938 l -0.039062 -0.089843 l -0.046876 -0.089844 l -0.050781 -0.089844 l -0.117187 -0.179687 l -0.066406 -0.085938 l -0.070313 -0.089844 l -0.074219 -0.089843 l -0.078125 -0.089844 l -0.175781 -0.175781 l -0.09375 -0.085938 l -0.101562 -0.085937 l -0.105469 -0.085938 l -0.109375 -0.082031 l -0.117188 -0.082031 l -0.117187 -0.078125 l -0.125 -0.078125 l -0.128907 -0.078125 l -0.132812 -0.074219 l -0.140625 -0.074219 l -0.140625 -0.070312 l -0.148438 -0.070313 l -0.152343 -0.066406 l -0.160157 -0.066406 l -0.164062 -0.0625 l -0.171875 -0.058594 l -0.175781 -0.054687 l -0.175782 -0.050782 l -0.183593 -0.050781 l -0.1875 -0.046875 l -0.195313 -0.042969 l -0.195312 -0.039062 l -0.203125 -0.039063 l -0.207031 -0.035156 l -0.214844 -0.027344 l -0.21875 -0.027344 l -0.222656 -0.023437 l -0.226563 -0.015625 l -0.234375 -0.011719 l -0.082031 -0.003906 l -0.078125 -0.003906 l -0.074219 -0.003907 l -0.140625 -0.007812 l -0.0625 -0.003906 h -0.066406 l -0.117188 -0.007813 h -0.105468 l -0.050782 -0.003906 h -0.09375 l -0.042968 -0.003906 h -0.121094 l -0.039063 -0.003907 h -0.160156 l -0.03125 -0.003906 h -0.230469 l -0.023437 -0.003906 z m 0 0" stroke-width="0.999947"/>
        <path d="m 0.546875 7.144531 s 0.925781 5.28125 0.925781 5.90625 c 0 1.378907 2.113282 -0.855469 3.984375 -0.855469 c 1.984375 0 1.292969 -1.476562 2.542969 -1.476562 s 0.558594 1.476562 2.542969 1.476562 c 1.871093 0 3.984375 2.234376 3.984375 0.855469 c 0 -0.625 0.925781 -5.90625 0.925781 -5.90625" stroke-linecap="round" stroke-width="0.999771"/>
    </g>
</svg>
